<svg xmlns="http://www.w3.org/2000/svg" xmlns:xlink="http://www.w3.org/1999/xlink" width="500" height="500" viewBox="0 0 50 50"><line x1="15" x2="35" y1="17" y2="17" fill="none" stroke="#000" stroke-linejoin="round" stroke-miterlimit="10" stroke-width="2"/><line x1="15" x2="35" y1="23" y2="23" fill="none" stroke="#000" stroke-linejoin="round" stroke-miterlimit="10" stroke-width="2"/><path fill="none" stroke="#000" stroke-linejoin="round" stroke-miterlimit="10" stroke-width="2" d="M26,35.2c-0.1-0.6-0.6-1.1-1.2-1.2c0-0.1-0.1-0.1-0.1-0.2c0.2-0.6,0.1-1.2-0.4-1.6c-0.5-0.4-1.2-0.4-1.7-0.1c-0.1,0-0.1,0-0.2-0.1l0,0c-0.2-0.6-0.7-1-1.4-1c-0.6,0-1.2,0.4-1.4,1l0,0c-0.1,0-0.1,0-0.2,0.1c-0.5-0.3-1.2-0.3-1.7,0.1c-0.5,0.4-0.6,1-0.4,1.6c0,0.1-0.1,0.1-0.1,0.2c-0.6,0.1-1.1,0.6-1.2,1.2c-0.1,0.6,0.2,1.2,0.7,1.5c0,0.1,0,0.2,0,0.3c-0.4,0.5-0.4,1.1-0.1,1.6c0.3,0.5,0.9,0.8,1.5,0.7c0.1,0.1,0.2,0.1,0.2,0.2c0,0.6,0.4,1.1,0.9,1.3c0.6,0.2,1.2,0,1.6-0.4c0.1,0,0.1,0,0.2,0c0.1,0,0.1,0,0.2,0c0.3,0.3,0.7,0.5,1.1,0.5c0.2,0,0.3,0,0.5-0.1c0.6-0.2,0.9-0.7,0.9-1.3c0.1-0.1,0.2-0.1,0.2-0.2c0.6,0.1,1.2-0.2,1.5-0.7c0.3-0.5,0.2-1.2-0.1-1.6c0-0.1,0-0.2,0-0.3C25.8,36.4,26.1,35.8,26,35.2z"/><polyline fill="none" stroke="#000" stroke-linejoin="round" stroke-miterlimit="10" stroke-width="2" points="15 45 9 45 9 5 41 5 41 45 27 45"/><polyline fill="none" stroke="#000" stroke-linejoin="round" stroke-miterlimit="10" stroke-width="2" points="25 39 25 48 21 45 17 48 17 39"/></svg>